<svg width="104" height="16" viewBox="0 0 104 16" fill="none" xmlns="http://www.w3.org/2000/svg">
<path d="M18.5629 0.0253906C18.5629 3.77479 16.4816 7.03766 13.4116 8.72286C15.0393 6.22008 15.9857 3.2334 15.9857 0.0253906H9.92633C9.92633 3.78314 7.83584 7.05243 4.75451 8.73425C6.3871 6.2292 7.33692 3.23854 7.33692 0.0253906H1.27757C1.27757 1.79576 1.51205 5.02529 0 6.98887V13.4648C0.00388268 13.4624 0.00759609 13.4597 0.0113944 13.4572V16C3.19334 16 6.15785 15.0693 8.648 13.4658V16C17.4703 16 24.6223 8.84787 24.6223 0.0253906H18.5629Z" fill="white"/>
<path d="M39.3642 4.61483C39.0588 4.17372 38.5498 3.93619 38.0069 3.93619H31.4241C30.474 3.93619 29.5918 4.54697 29.2864 5.46321L27.8612 9.84044C27.6916 10.3494 27.7594 10.8924 28.0988 11.3335C28.4041 11.7746 28.9132 12.0461 29.456 12.0461H36.0389C36.9889 12.0461 37.8712 11.4013 38.1766 10.4852L39.6016 6.14185C39.7714 5.63287 39.7035 5.05603 39.3642 4.61483ZM42.5877 2.30746C43.6396 3.80046 43.945 5.63287 43.3682 7.39734L41.909 11.7407C41.0608 14.2856 38.7194 15.9823 36.0389 15.9823H29.456C27.6237 15.9823 25.9611 15.134 24.8753 13.641C23.8233 12.1818 23.5179 10.3155 24.0949 8.58495L25.5539 4.24158C26.4022 1.69668 28.7434 0 31.4241 0H38.0069C39.8392 0 41.5019 0.848299 42.5877 2.30746Z" fill="white"/>
<path d="M59.689 4.61483C59.3836 4.17372 58.8747 3.93619 58.3318 3.93619H51.7489C50.7989 3.93619 49.9166 4.54697 49.6112 5.46321L48.1861 9.84044C48.0164 10.3494 48.0843 10.8924 48.4236 11.3335C48.729 11.7746 49.238 12.0461 49.7808 12.0461H56.3637C57.3137 12.0461 58.196 11.4013 58.5014 10.4852L59.9265 6.14185C60.0962 5.63287 60.0283 5.05603 59.689 4.61483ZM62.9125 2.30746C63.9644 3.80046 64.2698 5.63287 63.693 7.39734L62.2339 11.7407C61.3857 14.2856 59.0442 15.9823 56.3637 15.9823H49.7808C47.9485 15.9823 46.2859 15.134 45.2001 13.641C44.1482 12.1818 43.8428 10.3155 44.4197 8.58495L45.8787 4.24158C46.7269 1.69668 49.0683 0 51.7489 0H58.3318C60.1641 0 61.8267 0.848299 62.9125 2.30746Z" fill="white"/>
<path d="M70.7508 6.04006L76.7228 6.00613C83.8824 6.00613 82.0162 15.9823 76.0102 15.9823H69.6988C67.629 15.9823 65.4573 15.8466 63.8965 14.0142L66.8825 11.4353C67.154 11.7746 67.5611 12.0461 69.6988 12.0461H75.0601C77.6389 12.0461 77.2317 9.94223 76.2138 9.94223L70.2078 9.97625C63.4893 9.97625 64.9144 0 70.9204 0H77.2317C79.3016 0 81.4732 0.135812 83.0341 1.93412L80.0481 4.51303C79.7767 4.20765 79.3694 3.93619 77.2317 3.93619H71.8705C69.2917 3.93619 69.6988 6.04006 70.7508 6.04006Z" fill="white"/>
<path d="M86.6645 0H90.8381L88.8701 5.93826H97.1155L99.0836 0H103.257L97.9638 15.9823H93.7902L95.8261 9.87437H87.5467L85.5447 15.9823H81.3711L86.6645 0Z" fill="white"/>
</svg>
