<svg width="108" height="20" viewBox="0 0 108 20" fill="none" xmlns="http://www.w3.org/2000/svg">
<path d="M19.4155 1.90625C19.4155 5.71183 17.2387 9.0236 14.0276 10.7341C15.7301 8.19378 16.7199 5.16233 16.7199 1.90625H10.3823C10.3823 5.72032 8.19575 9.03859 4.97289 10.7456C6.68046 8.20303 7.67391 5.16756 7.67391 1.90625H1.33625C1.33625 3.70315 1.5815 6.98108 0 8.97408V15.5471C0.00406102 15.5446 0.00794498 15.5418 0.0119177 15.5394V18.1203C3.34001 18.1203 6.44068 17.1756 9.04521 15.5481V18.1203C18.2727 18.1203 25.7532 10.8609 25.7532 1.90625H19.4155Z" fill="#003AF4"/>
<path d="M41.1721 6.56387C40.8527 6.11614 40.3204 5.87506 39.7525 5.87506H32.8673C31.8736 5.87506 30.9509 6.49499 30.6315 7.42497L29.1408 11.8678C28.9634 12.3844 29.0344 12.9355 29.3893 13.3833C29.7087 13.831 30.2411 14.1065 30.8088 14.1065H37.6941C38.6878 14.1065 39.6106 13.452 39.93 12.5222L41.4205 8.11378C41.598 7.59717 41.527 7.01168 41.1721 6.56387ZM44.5436 4.22192C45.6439 5.7373 45.9633 7.59717 45.36 9.38807L43.8339 13.7965C42.9467 16.3796 40.4977 18.1017 37.6941 18.1017H30.8088C28.8924 18.1017 27.1534 17.2407 26.0177 15.7253C24.9175 14.2443 24.5981 12.35 25.2015 10.5935L26.7275 6.18503C27.6148 3.60199 30.0636 1.87988 32.8673 1.87988H39.7525C41.669 1.87988 43.408 2.74089 44.5436 4.22192Z" fill="#003AF4"/>
<path d="M62.4308 6.56387C62.1114 6.11614 61.579 5.87506 61.0112 5.87506H54.126C53.1323 5.87506 52.2096 6.49499 51.8901 7.42497L50.3995 11.8678C50.222 12.3844 50.293 12.9355 50.6479 13.3833C50.9673 13.831 51.4998 14.1065 52.0675 14.1065H58.9527C59.9464 14.1065 60.8692 13.452 61.1886 12.5222L62.6791 8.11378C62.8567 7.59717 62.7857 7.01168 62.4308 6.56387ZM65.8023 4.22192C66.9026 5.7373 67.222 7.59717 66.6187 9.38807L65.0925 13.7965C64.2054 16.3796 61.7564 18.1017 58.9527 18.1017H52.0675C50.1511 18.1017 48.4121 17.2407 47.2764 15.7253C46.1761 14.2443 45.8567 12.35 46.4601 10.5935L47.9862 6.18503C48.8734 3.60199 51.3222 1.87988 54.126 1.87988H61.0112C62.9276 1.87988 64.6666 2.74089 65.8023 4.22192Z" fill="#003AF4"/>
<path d="M74.0004 8.01046L80.2467 7.97602C87.7352 7.97602 85.7833 18.1017 79.5014 18.1017H72.9001C70.7353 18.1017 68.4638 17.9639 66.8313 16.1041L69.9545 13.4866C70.2384 13.831 70.6643 14.1065 72.9001 14.1065H78.5077C81.2049 14.1065 80.779 11.9711 79.7143 11.9711L73.4325 12.0056C66.4054 12.0056 67.896 1.87988 74.1779 1.87988H80.779C82.944 1.87988 85.2153 2.01773 86.8479 3.84299L83.7248 6.46055C83.4409 6.15059 83.0149 5.87506 80.779 5.87506H75.1716C72.4743 5.87506 72.9001 8.01046 74.0004 8.01046Z" fill="#003AF4"/>
<path d="M90.6451 1.87988H95.0105L92.9521 7.90713H101.576L103.635 1.87988H108L102.463 18.1017H98.0982L100.228 11.9022H91.5679L89.474 18.1017H85.1086L90.6451 1.87988Z" fill="#003AF4"/>
</svg>
